<?xml version="1.0" encoding="utf-8"?>
<!-- Generator: Adobe Illustrator 19.0.0, SVG Export Plug-In . SVG Version: 6.00 Build 0)  -->
<svg version="1.1" id="Layer_1" xmlns="http://www.w3.org/2000/svg" xmlns:xlink="http://www.w3.org/1999/xlink" x="0px" y="0px"
	 viewBox="0 0 500 500" style="enable-background:new 0 0 500 500;" xml:space="preserve">
<style type="text/css">
	.st0{fill:#949494;}
	.st1{fill:#F1F1F1;}
	.st2{fill:#808080;}
	.st3{fill:#DC1D00;}
	.st4{fill:#4D4D4D;}
	.st5{fill:#FFFEFE;}
</style>
<g id="XMLID_16_">
	<polyline id="XMLID_19_" class="st0" points="355.7,68.4 355.6,68.4 428.2,144.1 428.2,431.6 157.2,431.6 157.2,432.5 429.1,432.5 
		429.1,145 355.7,68.4 	"/>
	<polyline id="XMLID_20_" class="st1" points="354.7,67.5 156.3,67.5 156.3,431.6 428.2,431.6 428.2,144.1 354.7,67.5 	"/>
	<polygon id="XMLID_39_" class="st2" points="154.3,87 71,87 71,176 154.3,176 333,176 333,87 	"/>
	<rect id="XMLID_30_" x="72.7" y="85.5" class="st3" width="261.7" height="89.1"/>
	<g id="XMLID_2_">
		<path id="XMLID_35_" class="st4" d="M157,130.4c-0.4,0-0.8,0-1.2,0v-19.3h2.5c2.9,0,4.7,0.9,6,2.4c1.6,1.8,2.4,5,2.4,7.3
			c0,3.2,0,6.1-2.9,8.2C162.3,130.1,159.8,130.4,157,130.4 M159.5,100.5c-0.1,0-0.3,0-0.4,0c-1.3,0-2.2,0-2.7,0h-13.9v62.6h13.4V142
			l3,0.2c3.1,0,5.9-0.7,8.4-1.5c2.5-0.8,4.6-2.2,6.4-3.8c1.8-1.6,3.5-3.6,4.4-5.9c1.4-3.5,1.7-8.4,1.4-11.8
			c-0.4-3.4-0.5-6.2-1.5-8.4c-1-2.2-2.3-4-3.8-5.4c-1.6-1.4-3.3-2.4-5.1-3.1c-1.9-0.7-3.6-1.1-5.4-1.4
			C162.1,100.6,160.7,100.5,159.5,100.5"/>
		<path id="XMLID_38_" class="st4" d="M202.5,151.7c-0.4,0-0.8,0-1.3,0v-39.9c0.1,0,0.1,0,0.2,0c2.7,0,6.1,0,7.8,1.4
			c1.8,1.4,3.2,3.2,4.2,5.2c1,2.1,1.7,4.4,1.8,6.9c0.1,2.9,0,5.2,0,7.2c0,1.9,0,4.3-0.4,6.7c-0.4,2.4-1.2,4.5-2.2,6.6
			c-1.1,2-3,3.4-4.7,4.7C206.4,151.4,204.6,151.7,202.5,151.7 M204.9,100.4c-1.4,0-2.9,0.1-3.8,0.1c-1.7,0.1-2.7,0.1-3.1,0.1h-10.2
			v62.6h12c5.3,0,9.7-0.8,13.4-2.3c3.7-1.5,6.6-3.7,8.9-6.4c2.2-2.7,3.9-6,4.9-9.8c1-3.8,1.5-7.9,1.5-12.4c0-5.8,0-10.3-1.1-14.7
			c-1-4-3.1-7.2-5.3-9.6c-2.1-2.4-4.5-4.1-7-5.2c-2.5-1.1-4.9-1.9-7.2-2.3C206.9,100.4,205.9,100.4,204.9,100.4"/>
		<polyline id="XMLID_64_" class="st4" points="268.7,100.6 237,100.6 237,163.2 250.4,163.2 250.4,138.3 267.3,138.3 267.3,126.7 
			250.4,126.7 250.4,112.2 268.7,112.2 268.7,100.6 		"/>
	</g>
	<path id="XMLID_28_" class="st3" d="M379.2,313.8c-0.1-1.2-1.2-15.7-27-15.1c-25.7,0.6-32,2.2-32,2.2S301,281.4,294,266.3
		c0,0,8.5-24.9,8.1-40.5c-0.4-15.6-4.1-24.6-16.1-24.5c-12,0.1-13.7,10.6-12.2,26.2c1.4,14,8.7,30.5,8.7,30.5s-5.5,17.2-12.9,34.4
		c-7.3,17.2-12.3,26.2-12.3,26.2s-24.8,8.3-35.5,18.3c-10.7,10-15.1,17.7-9.5,25.4c4.9,6.6,21.9,8.1,37.2-11.9
		c15.2-20,22.1-32.5,22.1-32.5s23.3-6.4,30.5-8.1c7.2-1.7,16-3.1,16-3.1s21.2,21.4,41.7,20.6C380.3,326.5,379.3,315,379.2,313.8z
		 M217.6,358.9c-12.7-7.6,26.7-31.1,33.9-31.9C251.5,327,231,366.9,217.6,358.9z M278.2,221.9c0-12.4,4-15.7,7.1-15.7
		s6.6,1.5,6.7,12.2c0.1,10.7-6.7,31.7-6.7,31.7C283,247.6,278.2,234.2,278.2,221.9z M294.7,306.6c-12.8,3.1-19.2,6.4-19.2,6.4
		s0,0,5.2-11.7c5.2-11.7,10.6-27.7,10.6-27.7c7.2,13.5,21.6,29.4,21.6,29.4S307.5,303.4,294.7,306.6z M325.4,305.5
		c0,0,41.6-7.5,41.6,6.7C367,326.3,341.2,320.5,325.4,305.5z"/>
	<polygon id="XMLID_44_" class="st0" points="353.7,68.5 353.7,145.1 427.2,145.1 	"/>
	<polygon id="XMLID_21_" class="st1" points="354.7,67.5 354.7,144.1 428.2,144.1 	"/>
	<g id="XMLID_23_">
		<path id="XMLID_43_" class="st5" d="M156,129.4c-0.4,0-0.8,0-1.2,0v-19.3h2.5c2.9,0,4.7,0.9,6,2.4c1.6,1.8,2.4,5,2.4,7.3
			c0,3.2,0,6.1-2.9,8.2C161.3,129.1,158.8,129.4,156,129.4 M158.5,99.5c-0.1,0-0.3,0-0.4,0c-1.3,0-2.2,0-2.7,0h-13.9v62.6h13.4V141
			l3,0.2c3.1,0,5.9-0.7,8.4-1.5c2.5-0.8,4.6-2.2,6.4-3.8c1.8-1.6,3.5-3.6,4.4-5.9c1.4-3.5,1.7-8.4,1.4-11.8
			c-0.4-3.4-0.5-6.2-1.5-8.4c-1-2.2-2.3-4-3.8-5.4c-1.6-1.4-3.3-2.4-5.1-3.1c-1.9-0.7-3.6-1.1-5.4-1.4
			C161.1,99.6,159.7,99.5,158.5,99.5"/>
		<path id="XMLID_32_" class="st5" d="M201.5,150.7c-0.4,0-0.8,0-1.3,0v-39.9c0.1,0,0.1,0,0.2,0c2.7,0,6.1,0,7.8,1.4
			c1.8,1.4,3.2,3.2,4.2,5.2c1,2.1,1.7,4.4,1.8,6.9c0.1,2.9,0,5.2,0,7.2c0,1.9,0,4.3-0.4,6.7c-0.4,2.4-1.2,4.5-2.2,6.6
			c-1.1,2-3,3.4-4.7,4.7C205.4,150.4,203.6,150.7,201.5,150.7 M203.9,99.4c-1.4,0-2.9,0.1-3.8,0.1c-1.7,0.1-2.7,0.1-3.1,0.1h-10.2
			v62.6h12c5.3,0,9.7-0.8,13.4-2.3c3.7-1.5,6.6-3.7,8.9-6.4c2.2-2.7,3.9-6,4.9-9.8c1-3.8,1.5-7.9,1.5-12.4c0-5.8,0-10.3-1.1-14.7
			c-1-4-3.1-7.2-5.3-9.6c-2.1-2.4-4.5-4.1-7-5.2c-2.5-1.1-4.9-1.9-7.2-2.3C205.9,99.4,204.9,99.4,203.9,99.4"/>
		<polyline id="XMLID_24_" class="st5" points="267.7,99.6 236,99.6 236,162.2 249.4,162.2 249.4,137.3 266.3,137.3 266.3,125.7 
			249.4,125.7 249.4,111.2 267.7,111.2 267.7,99.6 		"/>
	</g>
</g>
</svg>
